<?xml version='1.0' encoding='iso-8859-1'?>
<svg version="1.1" xmlns="http://www.w3.org/2000/svg" viewBox="0 0 465 465" xmlns:xlink="http://www.w3.org/1999/xlink" enable-background="new 0 0 465 465">
  <g>
    <path d="m457.5,59.295h-450c-4.143,0-7.5,3.357-7.5,7.5v331.41c0,4.143 3.357,7.5 7.5,7.5h450c4.143,0 7.5-3.357 7.5-7.5v-331.41c0-4.143-3.357-7.5-7.5-7.5zm-7.5,331.41h-435v-316.41h435v316.41z"/>
    <path d="m37.5,338.463c16.399,0 29.742,13.343 29.742,29.742 0,4.143 3.357,7.5 7.5,7.5h255.517c4.143,0 7.5-3.357 7.5-7.5 0-4.143-3.357-7.5-7.5-7.5h-248.646c-3.165-18.673-17.94-33.448-36.613-36.613v-183.185c18.673-3.165 33.448-17.939 36.613-36.612h301.774c3.165,18.673 17.939,33.447 36.612,36.612v183.185c-18.673,3.165-33.447,17.94-36.612,36.613h-23.129c-4.143,0-7.5,3.357-7.5,7.5 0,4.143 3.357,7.5 7.5,7.5h30c4.143,0 7.5-3.357 7.5-7.5 0-16.399 13.342-29.742 29.741-29.742 4.143,0 7.5-3.357 7.5-7.5v-196.927c0-4.143-3.357-7.5-7.5-7.5-16.399,0-29.741-13.342-29.741-29.741 0-4.143-3.357-7.5-7.5-7.5h-315.516c-4.143,0-7.5,3.357-7.5,7.5 0,16.399-13.343,29.741-29.742,29.741-4.143,0-7.5,3.357-7.5,7.5v196.927c0,4.142 3.357,7.5 7.5,7.5z"/>
    <path d="m180.609,192.255c1.415,1.912 3.652,3.04 6.03,3.04s4.615-1.128 6.03-3.04l16.897-22.848 16.898,22.848c1.415,1.912 3.652,3.04 6.03,3.04s4.615-1.128 6.03-3.04l16.899-22.849 16.902,22.849c1.414,1.912 3.651,3.04 6.029,3.04s4.615-1.128 6.029-3.04l22.932-31c2.464-3.33 1.761-8.026-1.569-10.489-3.33-2.466-8.026-1.761-10.489,1.569l-16.902,22.849-16.903-22.849c-1.414-1.912-3.651-3.04-6.029-3.04-2.379,0-4.615,1.128-6.03,3.04l-16.898,22.848-16.898-22.848c-1.415-1.912-3.652-3.04-6.03-3.04s-4.616,1.128-6.03,3.04l-16.897,22.848-16.898-22.848c-2.465-3.332-7.159-4.03-10.49-1.57-3.33,2.464-4.033,7.16-1.57,10.49l22.927,31z"/>
    <path d="m375.098,257.795c0-4.143-3.357-7.5-7.5-7.5h-270.195c-4.143,0-7.5,3.357-7.5,7.5s3.357,7.5 7.5,7.5h270.194c4.143,0 7.501-3.357 7.501-7.5z"/>
    <path d="m280.021,300.705h-95.04c-4.143,0-7.5,3.357-7.5,7.5s3.357,7.5 7.5,7.5h95.04c4.143,0 7.5-3.357 7.5-7.5s-3.358-7.5-7.5-7.5z"/>
    <path d="m97.403,235.295h270.194c4.143,0 7.5-3.357 7.5-7.5s-3.357-7.5-7.5-7.5h-270.194c-4.143,0-7.5,3.357-7.5,7.5s3.358,7.5 7.5,7.5z"/>
  </g>
</svg>
